<svg version="1.1" id="Layer_1" xmlns="http://www.w3.org/2000/svg" xmlns:xlink="http://www.w3.org/1999/xlink" x="0px" y="0px"
	 width="100%" viewBox="0 0 1280 442" enable-background="new 0 0 1280 442" xml:space="preserve">
<path fill="#000000" opacity="1.000000" stroke="none" 
	d="
M897.000000,443.000000 
	C598.000061,443.000000 299.500061,443.000000 1.000080,443.000000 
	C1.000053,295.666718 1.000053,148.333435 1.000027,1.000120 
	C427.666534,1.000080 854.333069,1.000080 1280.999756,1.000040 
	C1280.999756,148.333206 1280.999756,295.666412 1280.999878,442.999817 
	C1153.166626,443.000000 1025.333374,443.000000 897.000000,443.000000 
M383.500000,438.999634 
	C680.893311,438.999634 978.286621,438.999634 1275.602417,438.999634 
	C1275.602417,294.546234 1275.602417,150.978592 1275.602417,6.735175 
	C1254.998779,6.735175 1234.788330,6.735175 1213.442749,6.735175 
	C1213.442749,131.156662 1213.442749,255.823685 1213.442749,380.199524 
	C832.406311,380.199524 452.505768,380.199524 72.431503,380.199524 
	C72.431503,275.045319 72.431503,170.692062 72.431503,66.379829 
	C418.095642,66.379829 763.324036,66.379829 1109.111084,66.379829 
	C1109.111084,156.994675 1109.111084,247.232071 1109.111084,337.705078 
	C1130.908325,337.705078 1152.146118,337.705078 1173.571411,337.705078 
	C1173.571411,227.056030 1173.571411,116.703079 1173.571411,6.371380 
	C784.582825,6.371380 396.022369,6.371380 7.326093,6.371380 
	C7.326093,150.643799 7.326093,294.544678 7.326093,438.999634 
	C132.601929,438.999634 257.550964,438.999634 383.500000,438.999634 
M244.138535,122.681572 
	C243.793976,123.782341 243.378448,124.866425 243.115173,125.986298 
	C234.495422,162.649612 224.400238,198.889847 211.990799,234.464615 
	C210.458679,238.856796 208.742920,243.184906 206.662048,248.745850 
	C195.165573,201.552017 184.024124,155.815643 172.941681,110.321503 
	C149.522232,110.321503 126.933708,110.321503 103.517448,110.321503 
	C127.228531,186.552353 150.774948,262.253784 174.274979,337.806152 
	C196.074966,337.806152 217.208389,337.806152 238.588272,337.806152 
	C251.457718,293.901794 264.294647,250.108414 277.339294,205.606308 
	C278.651337,209.445236 279.778656,212.355942 280.646637,215.342056 
	C292.204529,255.103622 302.916962,295.127899 317.957184,333.799164 
	C319.157440,336.885223 320.440369,338.127167 323.899628,338.088959 
	C341.560638,337.893860 359.230621,337.751007 376.884583,338.154816 
	C382.000427,338.271820 383.742889,336.264221 384.963135,331.893372 
	C394.107819,299.137756 403.371429,266.415161 412.663788,233.700928 
	C423.035583,197.186691 433.496002,160.697617 443.863312,124.182129 
	C445.133148,119.709526 446.066406,115.141365 447.238586,110.273071 
	C445.074646,110.150047 443.762054,110.011452 442.449371,110.010422 
	C424.119659,109.996048 405.787811,110.149521 387.461884,109.886276 
	C383.335297,109.826988 381.957733,111.670479 381.089050,115.039192 
	C378.588074,124.737930 376.036285,134.423935 373.443420,144.098557 
	C365.916718,172.182083 358.397125,200.267639 350.786224,228.328400 
	C349.137878,234.405853 347.119598,240.382980 345.271729,246.406311 
	C344.954285,246.368484 344.636871,246.330643 344.319427,246.292801 
	C332.424683,200.958817 320.529907,155.624832 308.628143,110.264130 
	C288.039215,110.264130 267.764038,110.264130 247.446777,110.264130 
	C246.435150,114.319412 245.482941,118.136436 244.138535,122.681572 
M1027.123413,202.247360 
	C1026.972534,201.604248 1026.896362,200.932190 1026.659912,200.322189 
	C1015.669189,171.959061 1004.558228,143.641571 993.779175,115.198288 
	C992.214783,111.070175 990.308960,109.839882 985.980896,109.886879 
	C963.656799,110.129333 941.328735,109.999481 919.002014,109.999626 
	C910.221497,109.999680 910.330627,110.039047 907.437683,118.080826 
	C891.515564,162.340714 875.536926,206.580307 859.574707,250.825806 
	C850.756165,275.269897 841.914795,299.705780 833.125427,324.160370 
	C831.560364,328.514832 830.200195,332.942902 828.706055,337.455811 
	C830.101685,337.753967 830.583618,337.946381 831.065796,337.947021 
	C851.559509,337.973755 872.053589,337.931244 892.546631,338.052185 
	C895.580139,338.070068 896.356445,336.545837 897.130188,334.062073 
	C901.531555,319.933807 906.225464,305.895813 910.536377,291.740753 
	C911.633667,288.137756 913.228882,286.870270 917.078064,286.906006 
	C938.403259,287.103943 959.731201,287.000549 981.058228,287.000366 
	C991.511230,287.000275 991.084778,287.127319 994.132446,297.355988 
	C998.200378,311.009064 1003.012024,324.440582 1007.386353,337.612366 
	C1031.243042,337.612366 1054.474731,337.612366 1078.560059,337.612366 
	C1077.273438,333.789398 1076.287354,330.526733 1075.086426,327.345123 
	C1067.712158,307.808746 1060.338989,288.271667 1052.869507,268.771576 
	C1044.457275,246.810654 1035.943848,224.888550 1027.123413,202.247360 
M601.000000,211.500000 
	C601.000000,253.567947 601.000000,295.635895 601.000000,337.569641 
	C620.855408,337.569641 639.758423,337.569641 658.999084,337.569641 
	C658.999084,335.324707 658.999084,333.508514 658.999146,331.692322 
	C658.999390,313.693054 659.088562,295.692993 658.936829,277.695007 
	C658.899109,273.230438 659.565063,269.973816 663.411926,266.628143 
	C671.046448,259.988190 677.716553,252.239517 685.087646,244.637207 
	C706.446411,274.727081 727.338745,304.058350 748.068237,333.504242 
	C750.395569,336.810150 752.763855,338.174591 756.946289,338.119446 
	C777.108582,337.853455 797.276428,338.006500 817.442261,337.989410 
	C819.177979,337.987946 820.913513,337.829010 823.455627,337.703369 
	C790.060730,291.455200 757.193970,245.938370 724.121216,200.136337 
	C754.607910,170.428574 784.950317,140.861374 815.292786,111.294159 
	C814.991028,110.862556 814.689331,110.430946 814.387573,109.999336 
	C812.582336,109.999336 810.777100,109.999306 808.971863,109.999329 
	C787.472717,109.999680 765.972961,110.090088 744.475098,109.924866 
	C740.144287,109.891579 737.130432,110.693802 733.917236,114.272690 
	C721.387085,128.228851 708.213135,141.605438 695.354736,155.269257 
	C687.634460,163.473129 680.106140,171.857574 672.390137,180.065506 
	C668.693298,183.998001 664.760986,187.709076 660.935364,191.520432 
	C660.410706,191.351715 659.886108,191.182983 659.361450,191.014267 
	C659.361450,164.173019 659.361450,137.331772 659.361450,110.327133 
	C639.398743,110.327133 620.497437,110.327133 601.000000,110.327133 
	C601.000000,143.934341 601.000000,177.217178 601.000000,211.500000 
M482.999512,310.500000 
	C482.999512,319.579803 482.999512,328.659607 482.999512,337.580200 
	C503.158691,337.580200 522.397827,337.580200 541.643555,337.580200 
	C541.643555,261.587128 541.643555,186.015182 541.643555,110.324188 
	C522.037048,110.324188 502.796021,110.324188 482.999725,110.324188 
	C482.999725,176.930954 482.999725,243.215469 482.999512,310.500000 
z"/>
<path fill="#00519E" opacity="1.000000" stroke="none" 
	d="
M383.000000,438.999634 
	C257.550964,438.999634 132.601929,438.999634 7.326093,438.999634 
	C7.326093,294.544678 7.326093,150.643799 7.326093,6.371380 
	C396.022369,6.371380 784.582825,6.371380 1173.571411,6.371380 
	C1173.571411,116.703079 1173.571411,227.056030 1173.571411,337.705078 
	C1152.146118,337.705078 1130.908325,337.705078 1109.111084,337.705078 
	C1109.111084,247.232071 1109.111084,156.994675 1109.111084,66.379829 
	C763.324036,66.379829 418.095642,66.379829 72.431503,66.379829 
	C72.431503,170.692062 72.431503,275.045319 72.431503,380.199524 
	C452.505768,380.199524 832.406311,380.199524 1213.442749,380.199524 
	C1213.442749,255.823685 1213.442749,131.156662 1213.442749,6.735175 
	C1234.788330,6.735175 1254.998779,6.735175 1275.602417,6.735175 
	C1275.602417,150.978592 1275.602417,294.546234 1275.602417,438.999634 
	C978.286621,438.999634 680.893311,438.999634 383.000000,438.999634 
z"/>
<path fill="#00519E" opacity="1.000000" stroke="none" 
	d="
M244.334641,122.317520 
	C245.482941,118.136436 246.435150,114.319412 247.446777,110.264130 
	C267.764038,110.264130 288.039215,110.264130 308.628143,110.264130 
	C320.529907,155.624832 332.424683,200.958817 344.319427,246.292801 
	C344.636871,246.330643 344.954285,246.368484 345.271729,246.406311 
	C347.119598,240.382980 349.137878,234.405853 350.786224,228.328400 
	C358.397125,200.267639 365.916718,172.182083 373.443420,144.098557 
	C376.036285,134.423935 378.588074,124.737930 381.089050,115.039192 
	C381.957733,111.670479 383.335297,109.826988 387.461884,109.886276 
	C405.787811,110.149521 424.119659,109.996048 442.449371,110.010422 
	C443.762054,110.011452 445.074646,110.150047 447.238586,110.273071 
	C446.066406,115.141365 445.133148,119.709526 443.863312,124.182129 
	C433.496002,160.697617 423.035583,197.186691 412.663788,233.700928 
	C403.371429,266.415161 394.107819,299.137756 384.963135,331.893372 
	C383.742889,336.264221 382.000427,338.271820 376.884583,338.154816 
	C359.230621,337.751007 341.560638,337.893860 323.899628,338.088959 
	C320.440369,338.127167 319.157440,336.885223 317.957184,333.799164 
	C302.916962,295.127899 292.204529,255.103622 280.646637,215.342056 
	C279.778656,212.355942 278.651337,209.445236 277.339294,205.606308 
	C264.294647,250.108414 251.457718,293.901794 238.588272,337.806152 
	C217.208389,337.806152 196.074966,337.806152 174.274979,337.806152 
	C150.774948,262.253784 127.228531,186.552353 103.517448,110.321503 
	C126.933708,110.321503 149.522232,110.321503 172.941681,110.321503 
	C184.024124,155.815643 195.165573,201.552017 206.662048,248.745850 
	C208.742920,243.184906 210.458679,238.856796 211.990799,234.464615 
	C224.400238,198.889847 234.495422,162.649612 243.115173,125.986298 
	C243.378448,124.866425 243.793976,123.782341 244.334641,122.317520 
z"/>
<path fill="#00519E" opacity="1.000000" stroke="none" 
	d="
M1027.298828,202.598450 
	C1035.943848,224.888550 1044.457275,246.810654 1052.869507,268.771576 
	C1060.338989,288.271667 1067.712158,307.808746 1075.086426,327.345123 
	C1076.287354,330.526733 1077.273438,333.789398 1078.560059,337.612366 
	C1054.474731,337.612366 1031.243042,337.612366 1007.386353,337.612366 
	C1003.012024,324.440582 998.200378,311.009064 994.132446,297.355988 
	C991.084778,287.127319 991.511230,287.000275 981.058228,287.000366 
	C959.731201,287.000549 938.403259,287.103943 917.078064,286.906006 
	C913.228882,286.870270 911.633667,288.137756 910.536377,291.740753 
	C906.225464,305.895813 901.531555,319.933807 897.130188,334.062073 
	C896.356445,336.545837 895.580139,338.070068 892.546631,338.052185 
	C872.053589,337.931244 851.559509,337.973755 831.065796,337.947021 
	C830.583618,337.946381 830.101685,337.753967 828.706055,337.455811 
	C830.200195,332.942902 831.560364,328.514832 833.125427,324.160370 
	C841.914795,299.705780 850.756165,275.269897 859.574707,250.825806 
	C875.536926,206.580307 891.515564,162.340714 907.437683,118.080826 
	C910.330627,110.039047 910.221497,109.999680 919.002014,109.999626 
	C941.328735,109.999481 963.656799,110.129333 985.980896,109.886879 
	C990.308960,109.839882 992.214783,111.070175 993.779175,115.198288 
	C1004.558228,143.641571 1015.669189,171.959061 1026.659912,200.322189 
	C1026.896362,200.932190 1026.972534,201.604248 1027.298828,202.598450 
M973.784668,239.870270 
	C973.890747,238.621201 974.392395,237.244980 974.038513,236.143753 
	C971.778137,229.111298 969.396667,222.115570 966.929321,215.152328 
	C961.585815,200.072144 956.166565,185.018768 950.778259,169.954422 
	C950.418030,169.931046 950.057800,169.907654 949.697571,169.884277 
	C942.151672,193.038544 934.605774,216.192810 926.858826,239.963852 
	C942.986450,239.963852 957.944824,239.963852 973.784668,239.870270 
z"/>
<path fill="#00519E" opacity="1.000000" stroke="none" 
	d="
M601.000000,211.000000 
	C601.000000,177.217178 601.000000,143.934341 601.000000,110.327133 
	C620.497437,110.327133 639.398743,110.327133 659.361450,110.327133 
	C659.361450,137.331772 659.361450,164.173019 659.361450,191.014267 
	C659.886108,191.182983 660.410706,191.351715 660.935364,191.520432 
	C664.760986,187.709076 668.693298,183.998001 672.390137,180.065506 
	C680.106140,171.857574 687.634460,163.473129 695.354736,155.269257 
	C708.213135,141.605438 721.387085,128.228851 733.917236,114.272690 
	C737.130432,110.693802 740.144287,109.891579 744.475098,109.924866 
	C765.972961,110.090088 787.472717,109.999680 808.971863,109.999329 
	C810.777100,109.999306 812.582336,109.999336 814.387573,109.999336 
	C814.689331,110.430946 814.991028,110.862556 815.292786,111.294159 
	C784.950317,140.861374 754.607910,170.428574 724.121216,200.136337 
	C757.193970,245.938370 790.060730,291.455200 823.455627,337.703369 
	C820.913513,337.829010 819.177979,337.987946 817.442261,337.989410 
	C797.276428,338.006500 777.108582,337.853455 756.946289,338.119446 
	C752.763855,338.174591 750.395569,336.810150 748.068237,333.504242 
	C727.338745,304.058350 706.446411,274.727081 685.087646,244.637207 
	C677.716553,252.239517 671.046448,259.988190 663.411926,266.628143 
	C659.565063,269.973816 658.899109,273.230438 658.936829,277.695007 
	C659.088562,295.692993 658.999390,313.693054 658.999146,331.692322 
	C658.999084,333.508514 658.999084,335.324707 658.999084,337.569641 
	C639.758423,337.569641 620.855408,337.569641 601.000000,337.569641 
	C601.000000,295.635895 601.000000,253.567947 601.000000,211.000000 
z"/>
<path fill="#00519E" opacity="1.000000" stroke="none" 
	d="
M482.999634,310.000000 
	C482.999725,243.215469 482.999725,176.930954 482.999725,110.324188 
	C502.796021,110.324188 522.037048,110.324188 541.643555,110.324188 
	C541.643555,186.015182 541.643555,261.587128 541.643555,337.580200 
	C522.397827,337.580200 503.158691,337.580200 482.999512,337.580200 
	C482.999512,328.659607 482.999512,319.579803 482.999634,310.000000 
z"/>
<path fill="#000000" opacity="1.000000" stroke="none" 
	d="
M973.343933,239.917053 
	C957.944824,239.963852 942.986450,239.963852 926.858826,239.963852 
	C934.605774,216.192810 942.151672,193.038544 949.697571,169.884277 
	C950.057800,169.907654 950.418030,169.931046 950.778259,169.954422 
	C956.166565,185.018768 961.585815,200.072144 966.929321,215.152328 
	C969.396667,222.115570 971.778137,229.111298 974.038513,236.143753 
	C974.392395,237.244980 973.890747,238.621201 973.343933,239.917053 
z"/>
</svg>